<?xml version="1.0" encoding="UTF-8"?>
<svg xmlns="http://www.w3.org/2000/svg" width="920" height="150" viewBox="0 0 920 150" role="img" aria-labelledby="title desc">
  <title id="title">21,320 contributions in the last year</title>
  <desc id="desc">GitHub contribution activity card for majiayu000.</desc>
  <defs>
    <linearGradient id="border" x1="0" y1="0" x2="1" y2="0">
      <stop offset="0%" stop-color="#00ffff"/>
      <stop offset="55%" stop-color="#7c3aed"/>
      <stop offset="100%" stop-color="#22c55e"/>
    </linearGradient>
    <filter id="glow" x="-30%" y="-30%" width="160%" height="160%">
      <feGaussianBlur stdDeviation="3" result="blur"/>
      <feMerge>
        <feMergeNode in="blur"/>
        <feMergeNode in="SourceGraphic"/>
      </feMerge>
    </filter>
    <style>
      text { font-family: "JetBrains Mono", "SFMono-Regular", Consolas, monospace; }
      .label { fill: #7d8590; font-size: 12px; font-weight: 700; letter-spacing: 0; }
      .count { fill: #f0f6fc; font-size: 34px; font-weight: 800; letter-spacing: 0; }
      .meta { fill: #8b949e; font-size: 12px; }
      .cyan { fill: #00ffff; }
      .green { fill: #3fb950; }
    </style>
  </defs>
  <rect width="920" height="150" rx="18" fill="#0d1117"/>
  <rect x="1" y="1" width="918" height="148" rx="17" fill="none" stroke="url(#border)" stroke-width="2" opacity="0.9" filter="url(#glow)"/>
  <text x="28" y="38" class="label">ACTIVITY SIGNAL</text>
  <text x="28" y="78" class="count">21,320</text>
  <text x="28" y="103" class="meta">contributions in the last year</text>
  <text x="28" y="128" class="meta"><tspan class="green">260</tspan> active days / best day <tspan class="cyan">570</tspan> on 2026-07-03</text>
  <text x="326" y="38" class="label">CONTRIBUTION GRID</text>
  <text x="885" y="38" class="meta" text-anchor="end">sync 2026-07-06 16:27</text>
  <rect x="326" y="58" width="8" height="8" rx="2" fill="#ebedf0" stroke="#30363d" /><rect x="326" y="69" width="8" height="8" rx="2" fill="#ebedf0" stroke="#30363d" /><rect x="326" y="80" width="8" height="8" rx="2" fill="#9be9a8" stroke="none" /><rect x="326" y="91" width="8" height="8" rx="2" fill="#9be9a8" stroke="none" /><rect x="326" y="102" width="8" height="8" rx="2" fill="#9be9a8" stroke="none" /><rect x="326" y="113" width="8" height="8" rx="2" fill="#ebedf0" stroke="#30363d" /><rect x="326" y="124" width="8" height="8" rx="2" fill="#ebedf0" stroke="#30363d" /><rect x="337" y="58" width="8" height="8" rx="2" fill="#ebedf0" stroke="#30363d" /><rect x="337" y="69" width="8" height="8" rx="2" fill="#ebedf0" stroke="#30363d" /><rect x="337" y="80" width="8" height="8" rx="2" fill="#9be9a8" stroke="none" /><rect x="337" y="91" width="8" height="8" rx="2" fill="#9be9a8" stroke="none" /><rect x="337" y="102" width="8" height="8" rx="2" fill="#9be9a8" stroke="none" /><rect x="337" y="113" width="8" height="8" rx="2" fill="#9be9a8" stroke="none" /><rect x="337" y="124" width="8" height="8" rx="2" fill="#ebedf0" stroke="#30363d" /><rect x="348" y="58" width="8" height="8" rx="2" fill="#ebedf0" stroke="#30363d" /><rect x="348" y="69" width="8" height="8" rx="2" fill="#9be9a8" stroke="none" /><rect x="348" y="80" width="8" height="8" rx="2" fill="#9be9a8" stroke="none" /><rect x="348" y="91" width="8" height="8" rx="2" fill="#9be9a8" stroke="none" /><rect x="348" y="102" width="8" height="8" rx="2" fill="#9be9a8" stroke="none" /><rect x="348" y="113" width="8" height="8" rx="2" fill="#9be9a8" stroke="none" /><rect x="348" y="124" width="8" height="8" rx="2" fill="#ebedf0" stroke="#30363d" /><rect x="359" y="58" width="8" height="8" rx="2" fill="#ebedf0" stroke="#30363d" /><rect x="359" y="69" width="8" height="8" rx="2" fill="#9be9a8" stroke="none" /><rect x="359" y="80" width="8" height="8" rx="2" fill="#9be9a8" stroke="none" /><rect x="359" y="91" width="8" height="8" rx="2" fill="#9be9a8" stroke="none" /><rect x="359" y="102" width="8" height="8" rx="2" fill="#9be9a8" stroke="none" /><rect x="359" y="113" width="8" height="8" rx="2" fill="#9be9a8" stroke="none" /><rect x="359" y="124" width="8" height="8" rx="2" fill="#ebedf0" stroke="#30363d" /><rect x="370" y="58" width="8" height="8" rx="2" fill="#ebedf0" stroke="#30363d" /><rect x="370" y="69" width="8" height="8" rx="2" fill="#9be9a8" stroke="none" /><rect x="370" y="80" width="8" height="8" rx="2" fill="#9be9a8" stroke="none" /><rect x="370" y="91" width="8" height="8" rx="2" fill="#9be9a8" stroke="none" /><rect x="370" y="102" width="8" height="8" rx="2" fill="#9be9a8" stroke="none" /><rect x="370" y="113" width="8" height="8" rx="2" fill="#9be9a8" stroke="none" /><rect x="370" y="124" width="8" height="8" rx="2" fill="#ebedf0" stroke="#30363d" /><rect x="381" y="58" width="8" height="8" rx="2" fill="#ebedf0" stroke="#30363d" /><rect x="381" y="69" width="8" height="8" rx="2" fill="#9be9a8" stroke="none" /><rect x="381" y="80" width="8" height="8" rx="2" fill="#9be9a8" stroke="none" /><rect x="381" y="91" width="8" height="8" rx="2" fill="#9be9a8" stroke="none" /><rect x="381" y="102" width="8" height="8" rx="2" fill="#9be9a8" stroke="none" /><rect x="381" y="113" width="8" height="8" rx="2" fill="#9be9a8" stroke="none" /><rect x="381" y="124" width="8" height="8" rx="2" fill="#ebedf0" stroke="#30363d" /><rect x="392" y="58" width="8" height="8" rx="2" fill="#ebedf0" stroke="#30363d" /><rect x="392" y="69" width="8" height="8" rx="2" fill="#9be9a8" stroke="none" /><rect x="392" y="80" width="8" height="8" rx="2" fill="#9be9a8" stroke="none" /><rect x="392" y="91" width="8" height="8" rx="2" fill="#9be9a8" stroke="none" /><rect x="392" y="102" width="8" height="8" rx="2" fill="#9be9a8" stroke="none" /><rect x="392" y="113" width="8" height="8" rx="2" fill="#9be9a8" stroke="none" /><rect x="392" y="124" width="8" height="8" rx="2" fill="#ebedf0" stroke="#30363d" /><rect x="403" y="58" width="8" height="8" rx="2" fill="#ebedf0" stroke="#30363d" /><rect x="403" y="69" width="8" height="8" rx="2" fill="#9be9a8" stroke="none" /><rect x="403" y="80" width="8" height="8" rx="2" fill="#9be9a8" stroke="none" /><rect x="403" y="91" width="8" height="8" rx="2" fill="#9be9a8" stroke="none" /><rect x="403" y="102" width="8" height="8" rx="2" fill="#9be9a8" stroke="none" /><rect x="403" y="113" width="8" height="8" rx="2" fill="#9be9a8" stroke="none" /><rect x="403" y="124" width="8" height="8" rx="2" fill="#9be9a8" stroke="none" /><rect x="414" y="58" width="8" height="8" rx="2" fill="#ebedf0" stroke="#30363d" /><rect x="414" y="69" width="8" height="8" rx="2" fill="#9be9a8" stroke="none" /><rect x="414" y="80" width="8" height="8" rx="2" fill="#9be9a8" stroke="none" /><rect x="414" y="91" width="8" height="8" rx="2" fill="#9be9a8" stroke="none" /><rect x="414" y="102" width="8" height="8" rx="2" fill="#9be9a8" stroke="none" /><rect x="414" y="113" width="8" height="8" rx="2" fill="#9be9a8" stroke="none" /><rect x="414" y="124" width="8" height="8" rx="2" fill="#9be9a8" stroke="none" /><rect x="425" y="58" width="8" height="8" rx="2" fill="#ebedf0" stroke="#30363d" /><rect x="425" y="69" width="8" height="8" rx="2" fill="#9be9a8" stroke="none" /><rect x="425" y="80" width="8" height="8" rx="2" fill="#9be9a8" stroke="none" /><rect x="425" y="91" width="8" height="8" rx="2" fill="#9be9a8" stroke="none" /><rect x="425" y="102" width="8" height="8" rx="2" fill="#ebedf0" stroke="#30363d" /><rect x="425" y="113" width="8" height="8" rx="2" fill="#ebedf0" stroke="#30363d" /><rect x="425" y="124" width="8" height="8" rx="2" fill="#ebedf0" stroke="#30363d" /><rect x="436" y="58" width="8" height="8" rx="2" fill="#ebedf0" stroke="#30363d" /><rect x="436" y="69" width="8" height="8" rx="2" fill="#ebedf0" stroke="#30363d" /><rect x="436" y="80" width="8" height="8" rx="2" fill="#ebedf0" stroke="#30363d" /><rect x="436" y="91" width="8" height="8" rx="2" fill="#9be9a8" stroke="none" /><rect x="436" y="102" width="8" height="8" rx="2" fill="#9be9a8" stroke="none" /><rect x="436" y="113" width="8" height="8" rx="2" fill="#9be9a8" stroke="none" /><rect x="436" y="124" width="8" height="8" rx="2" fill="#ebedf0" stroke="#30363d" /><rect x="447" y="58" width="8" height="8" rx="2" fill="#ebedf0" stroke="#30363d" /><rect x="447" y="69" width="8" height="8" rx="2" fill="#ebedf0" stroke="#30363d" /><rect x="447" y="80" width="8" height="8" rx="2" fill="#ebedf0" stroke="#30363d" /><rect x="447" y="91" width="8" height="8" rx="2" fill="#ebedf0" stroke="#30363d" /><rect x="447" y="102" width="8" height="8" rx="2" fill="#ebedf0" stroke="#30363d" /><rect x="447" y="113" width="8" height="8" rx="2" fill="#ebedf0" stroke="#30363d" /><rect x="447" y="124" width="8" height="8" rx="2" fill="#ebedf0" stroke="#30363d" /><rect x="458" y="58" width="8" height="8" rx="2" fill="#ebedf0" stroke="#30363d" /><rect x="458" y="69" width="8" height="8" rx="2" fill="#ebedf0" stroke="#30363d" /><rect x="458" y="80" width="8" height="8" rx="2" fill="#ebedf0" stroke="#30363d" /><rect x="458" y="91" width="8" height="8" rx="2" fill="#ebedf0" stroke="#30363d" /><rect x="458" y="102" width="8" height="8" rx="2" fill="#ebedf0" stroke="#30363d" /><rect x="458" y="113" width="8" height="8" rx="2" fill="#ebedf0" stroke="#30363d" /><rect x="458" y="124" width="8" height="8" rx="2" fill="#ebedf0" stroke="#30363d" /><rect x="469" y="58" width="8" height="8" rx="2" fill="#ebedf0" stroke="#30363d" /><rect x="469" y="69" width="8" height="8" rx="2" fill="#ebedf0" stroke="#30363d" /><rect x="469" y="80" width="8" height="8" rx="2" fill="#ebedf0" stroke="#30363d" /><rect x="469" y="91" width="8" height="8" rx="2" fill="#ebedf0" stroke="#30363d" /><rect x="469" y="102" width="8" height="8" rx="2" fill="#ebedf0" stroke="#30363d" /><rect x="469" y="113" width="8" height="8" rx="2" fill="#ebedf0" stroke="#30363d" /><rect x="469" y="124" width="8" height="8" rx="2" fill="#ebedf0" stroke="#30363d" /><rect x="480" y="58" width="8" height="8" rx="2" fill="#ebedf0" stroke="#30363d" /><rect x="480" y="69" width="8" height="8" rx="2" fill="#ebedf0" stroke="#30363d" /><rect x="480" y="80" width="8" height="8" rx="2" fill="#ebedf0" stroke="#30363d" /><rect x="480" y="91" width="8" height="8" rx="2" fill="#ebedf0" stroke="#30363d" /><rect x="480" y="102" width="8" height="8" rx="2" fill="#ebedf0" stroke="#30363d" /><rect x="480" y="113" width="8" height="8" rx="2" fill="#ebedf0" stroke="#30363d" /><rect x="480" y="124" width="8" height="8" rx="2" fill="#ebedf0" stroke="#30363d" /><rect x="491" y="58" width="8" height="8" rx="2" fill="#ebedf0" stroke="#30363d" /><rect x="491" y="69" width="8" height="8" rx="2" fill="#ebedf0" stroke="#30363d" /><rect x="491" y="80" width="8" height="8" rx="2" fill="#ebedf0" stroke="#30363d" /><rect x="491" y="91" width="8" height="8" rx="2" fill="#ebedf0" stroke="#30363d" /><rect x="491" y="102" width="8" height="8" rx="2" fill="#ebedf0" stroke="#30363d" /><rect x="491" y="113" width="8" height="8" rx="2" fill="#ebedf0" stroke="#30363d" /><rect x="491" y="124" width="8" height="8" rx="2" fill="#ebedf0" stroke="#30363d" /><rect x="502" y="58" width="8" height="8" rx="2" fill="#ebedf0" stroke="#30363d" /><rect x="502" y="69" width="8" height="8" rx="2" fill="#ebedf0" stroke="#30363d" /><rect x="502" y="80" width="8" height="8" rx="2" fill="#ebedf0" stroke="#30363d" /><rect x="502" y="91" width="8" height="8" rx="2" fill="#ebedf0" stroke="#30363d" /><rect x="502" y="102" width="8" height="8" rx="2" fill="#ebedf0" stroke="#30363d" /><rect x="502" y="113" width="8" height="8" rx="2" fill="#ebedf0" stroke="#30363d" /><rect x="502" y="124" width="8" height="8" rx="2" fill="#ebedf0" stroke="#30363d" /><rect x="513" y="58" width="8" height="8" rx="2" fill="#ebedf0" stroke="#30363d" /><rect x="513" y="69" width="8" height="8" rx="2" fill="#ebedf0" stroke="#30363d" /><rect x="513" y="80" width="8" height="8" rx="2" fill="#ebedf0" stroke="#30363d" /><rect x="513" y="91" width="8" height="8" rx="2" fill="#ebedf0" stroke="#30363d" /><rect x="513" y="102" width="8" height="8" rx="2" fill="#ebedf0" stroke="#30363d" /><rect x="513" y="113" width="8" height="8" rx="2" fill="#ebedf0" stroke="#30363d" /><rect x="513" y="124" width="8" height="8" rx="2" fill="#ebedf0" stroke="#30363d" /><rect x="524" y="58" width="8" height="8" rx="2" fill="#ebedf0" stroke="#30363d" /><rect x="524" y="69" width="8" height="8" rx="2" fill="#ebedf0" stroke="#30363d" /><rect x="524" y="80" width="8" height="8" rx="2" fill="#ebedf0" stroke="#30363d" /><rect x="524" y="91" width="8" height="8" rx="2" fill="#ebedf0" stroke="#30363d" /><rect x="524" y="102" width="8" height="8" rx="2" fill="#ebedf0" stroke="#30363d" /><rect x="524" y="113" width="8" height="8" rx="2" fill="#ebedf0" stroke="#30363d" /><rect x="524" y="124" width="8" height="8" rx="2" fill="#ebedf0" stroke="#30363d" /><rect x="535" y="58" width="8" height="8" rx="2" fill="#ebedf0" stroke="#30363d" /><rect x="535" y="69" width="8" height="8" rx="2" fill="#ebedf0" stroke="#30363d" /><rect x="535" y="80" width="8" height="8" rx="2" fill="#ebedf0" stroke="#30363d" /><rect x="535" y="91" width="8" height="8" rx="2" fill="#ebedf0" stroke="#30363d" /><rect x="535" y="102" width="8" height="8" rx="2" fill="#9be9a8" stroke="none" /><rect x="535" y="113" width="8" height="8" rx="2" fill="#ebedf0" stroke="#30363d" /><rect x="535" y="124" width="8" height="8" rx="2" fill="#ebedf0" stroke="#30363d" /><rect x="546" y="58" width="8" height="8" rx="2" fill="#ebedf0" stroke="#30363d" /><rect x="546" y="69" width="8" height="8" rx="2" fill="#ebedf0" stroke="#30363d" /><rect x="546" y="80" width="8" height="8" rx="2" fill="#ebedf0" stroke="#30363d" /><rect x="546" y="91" width="8" height="8" rx="2" fill="#ebedf0" stroke="#30363d" /><rect x="546" y="102" width="8" height="8" rx="2" fill="#ebedf0" stroke="#30363d" /><rect x="546" y="113" width="8" height="8" rx="2" fill="#ebedf0" stroke="#30363d" /><rect x="546" y="124" width="8" height="8" rx="2" fill="#ebedf0" stroke="#30363d" /><rect x="557" y="58" width="8" height="8" rx="2" fill="#ebedf0" stroke="#30363d" /><rect x="557" y="69" width="8" height="8" rx="2" fill="#ebedf0" stroke="#30363d" /><rect x="557" y="80" width="8" height="8" rx="2" fill="#ebedf0" stroke="#30363d" /><rect x="557" y="91" width="8" height="8" rx="2" fill="#ebedf0" stroke="#30363d" /><rect x="557" y="102" width="8" height="8" rx="2" fill="#ebedf0" stroke="#30363d" /><rect x="557" y="113" width="8" height="8" rx="2" fill="#ebedf0" stroke="#30363d" /><rect x="557" y="124" width="8" height="8" rx="2" fill="#ebedf0" stroke="#30363d" /><rect x="568" y="58" width="8" height="8" rx="2" fill="#ebedf0" stroke="#30363d" /><rect x="568" y="69" width="8" height="8" rx="2" fill="#9be9a8" stroke="none" /><rect x="568" y="80" width="8" height="8" rx="2" fill="#9be9a8" stroke="none" /><rect x="568" y="91" width="8" height="8" rx="2" fill="#9be9a8" stroke="none" /><rect x="568" y="102" width="8" height="8" rx="2" fill="#9be9a8" stroke="none" /><rect x="568" y="113" width="8" height="8" rx="2" fill="#9be9a8" stroke="none" /><rect x="568" y="124" width="8" height="8" rx="2" fill="#9be9a8" stroke="none" /><rect x="579" y="58" width="8" height="8" rx="2" fill="#9be9a8" stroke="none" /><rect x="579" y="69" width="8" height="8" rx="2" fill="#9be9a8" stroke="none" /><rect x="579" y="80" width="8" height="8" rx="2" fill="#9be9a8" stroke="none" /><rect x="579" y="91" width="8" height="8" rx="2" fill="#9be9a8" stroke="none" /><rect x="579" y="102" width="8" height="8" rx="2" fill="#9be9a8" stroke="none" /><rect x="579" y="113" width="8" height="8" rx="2" fill="#9be9a8" stroke="none" /><rect x="579" y="124" width="8" height="8" rx="2" fill="#9be9a8" stroke="none" /><rect x="590" y="58" width="8" height="8" rx="2" fill="#9be9a8" stroke="none" /><rect x="590" y="69" width="8" height="8" rx="2" fill="#9be9a8" stroke="none" /><rect x="590" y="80" width="8" height="8" rx="2" fill="#40c463" stroke="none" /><rect x="590" y="91" width="8" height="8" rx="2" fill="#40c463" stroke="none" /><rect x="590" y="102" width="8" height="8" rx="2" fill="#40c463" stroke="none" /><rect x="590" y="113" width="8" height="8" rx="2" fill="#40c463" stroke="none" /><rect x="590" y="124" width="8" height="8" rx="2" fill="#40c463" stroke="none" /><rect x="601" y="58" width="8" height="8" rx="2" fill="#40c463" stroke="none" /><rect x="601" y="69" width="8" height="8" rx="2" fill="#40c463" stroke="none" /><rect x="601" y="80" width="8" height="8" rx="2" fill="#216e39" stroke="none" /><rect x="601" y="91" width="8" height="8" rx="2" fill="#30a14e" stroke="none" /><rect x="601" y="102" width="8" height="8" rx="2" fill="#9be9a8" stroke="none" /><rect x="601" y="113" width="8" height="8" rx="2" fill="#9be9a8" stroke="none" /><rect x="601" y="124" width="8" height="8" rx="2" fill="#9be9a8" stroke="none" /><rect x="612" y="58" width="8" height="8" rx="2" fill="#9be9a8" stroke="none" /><rect x="612" y="69" width="8" height="8" rx="2" fill="#9be9a8" stroke="none" /><rect x="612" y="80" width="8" height="8" rx="2" fill="#9be9a8" stroke="none" /><rect x="612" y="91" width="8" height="8" rx="2" fill="#9be9a8" stroke="none" /><rect x="612" y="102" width="8" height="8" rx="2" fill="#40c463" stroke="none" /><rect x="612" y="113" width="8" height="8" rx="2" fill="#9be9a8" stroke="none" /><rect x="612" y="124" width="8" height="8" rx="2" fill="#9be9a8" stroke="none" /><rect x="623" y="58" width="8" height="8" rx="2" fill="#9be9a8" stroke="none" /><rect x="623" y="69" width="8" height="8" rx="2" fill="#9be9a8" stroke="none" /><rect x="623" y="80" width="8" height="8" rx="2" fill="#9be9a8" stroke="none" /><rect x="623" y="91" width="8" height="8" rx="2" fill="#9be9a8" stroke="none" /><rect x="623" y="102" width="8" height="8" rx="2" fill="#9be9a8" stroke="none" /><rect x="623" y="113" width="8" height="8" rx="2" fill="#9be9a8" stroke="none" /><rect x="623" y="124" width="8" height="8" rx="2" fill="#9be9a8" stroke="none" /><rect x="634" y="58" width="8" height="8" rx="2" fill="#ebedf0" stroke="#30363d" /><rect x="634" y="69" width="8" height="8" rx="2" fill="#9be9a8" stroke="none" /><rect x="634" y="80" width="8" height="8" rx="2" fill="#9be9a8" stroke="none" /><rect x="634" y="91" width="8" height="8" rx="2" fill="#9be9a8" stroke="none" /><rect x="634" y="102" width="8" height="8" rx="2" fill="#9be9a8" stroke="none" /><rect x="634" y="113" width="8" height="8" rx="2" fill="#9be9a8" stroke="none" /><rect x="634" y="124" width="8" height="8" rx="2" fill="#9be9a8" stroke="none" /><rect x="645" y="58" width="8" height="8" rx="2" fill="#9be9a8" stroke="none" /><rect x="645" y="69" width="8" height="8" rx="2" fill="#9be9a8" stroke="none" /><rect x="645" y="80" width="8" height="8" rx="2" fill="#9be9a8" stroke="none" /><rect x="645" y="91" width="8" height="8" rx="2" fill="#9be9a8" stroke="none" /><rect x="645" y="102" width="8" height="8" rx="2" fill="#9be9a8" stroke="none" /><rect x="645" y="113" width="8" height="8" rx="2" fill="#9be9a8" stroke="none" /><rect x="645" y="124" width="8" height="8" rx="2" fill="#ebedf0" stroke="#30363d" /><rect x="656" y="58" width="8" height="8" rx="2" fill="#9be9a8" stroke="none" /><rect x="656" y="69" width="8" height="8" rx="2" fill="#9be9a8" stroke="none" /><rect x="656" y="80" width="8" height="8" rx="2" fill="#9be9a8" stroke="none" /><rect x="656" y="91" width="8" height="8" rx="2" fill="#9be9a8" stroke="none" /><rect x="656" y="102" width="8" height="8" rx="2" fill="#40c463" stroke="none" /><rect x="656" y="113" width="8" height="8" rx="2" fill="#40c463" stroke="none" /><rect x="656" y="124" width="8" height="8" rx="2" fill="#9be9a8" stroke="none" /><rect x="667" y="58" width="8" height="8" rx="2" fill="#30a14e" stroke="none" /><rect x="667" y="69" width="8" height="8" rx="2" fill="#9be9a8" stroke="none" /><rect x="667" y="80" width="8" height="8" rx="2" fill="#9be9a8" stroke="none" /><rect x="667" y="91" width="8" height="8" rx="2" fill="#40c463" stroke="none" /><rect x="667" y="102" width="8" height="8" rx="2" fill="#30a14e" stroke="none" /><rect x="667" y="113" width="8" height="8" rx="2" fill="#9be9a8" stroke="none" /><rect x="667" y="124" width="8" height="8" rx="2" fill="#9be9a8" stroke="none" /><rect x="678" y="58" width="8" height="8" rx="2" fill="#9be9a8" stroke="none" /><rect x="678" y="69" width="8" height="8" rx="2" fill="#9be9a8" stroke="none" /><rect x="678" y="80" width="8" height="8" rx="2" fill="#40c463" stroke="none" /><rect x="678" y="91" width="8" height="8" rx="2" fill="#9be9a8" stroke="none" /><rect x="678" y="102" width="8" height="8" rx="2" fill="#9be9a8" stroke="none" /><rect x="678" y="113" width="8" height="8" rx="2" fill="#9be9a8" stroke="none" /><rect x="678" y="124" width="8" height="8" rx="2" fill="#9be9a8" stroke="none" /><rect x="689" y="58" width="8" height="8" rx="2" fill="#9be9a8" stroke="none" /><rect x="689" y="69" width="8" height="8" rx="2" fill="#9be9a8" stroke="none" /><rect x="689" y="80" width="8" height="8" rx="2" fill="#9be9a8" stroke="none" /><rect x="689" y="91" width="8" height="8" rx="2" fill="#9be9a8" stroke="none" /><rect x="689" y="102" width="8" height="8" rx="2" fill="#9be9a8" stroke="none" /><rect x="689" y="113" width="8" height="8" rx="2" fill="#9be9a8" stroke="none" /><rect x="689" y="124" width="8" height="8" rx="2" fill="#9be9a8" stroke="none" /><rect x="700" y="58" width="8" height="8" rx="2" fill="#9be9a8" stroke="none" /><rect x="700" y="69" width="8" height="8" rx="2" fill="#40c463" stroke="none" /><rect x="700" y="80" width="8" height="8" rx="2" fill="#9be9a8" stroke="none" /><rect x="700" y="91" width="8" height="8" rx="2" fill="#9be9a8" stroke="none" /><rect x="700" y="102" width="8" height="8" rx="2" fill="#9be9a8" stroke="none" /><rect x="700" y="113" width="8" height="8" rx="2" fill="#40c463" stroke="none" /><rect x="700" y="124" width="8" height="8" rx="2" fill="#40c463" stroke="none" /><rect x="711" y="58" width="8" height="8" rx="2" fill="#9be9a8" stroke="none" /><rect x="711" y="69" width="8" height="8" rx="2" fill="#9be9a8" stroke="none" /><rect x="711" y="80" width="8" height="8" rx="2" fill="#9be9a8" stroke="none" /><rect x="711" y="91" width="8" height="8" rx="2" fill="#9be9a8" stroke="none" /><rect x="711" y="102" width="8" height="8" rx="2" fill="#40c463" stroke="none" /><rect x="711" y="113" width="8" height="8" rx="2" fill="#30a14e" stroke="none" /><rect x="711" y="124" width="8" height="8" rx="2" fill="#40c463" stroke="none" /><rect x="722" y="58" width="8" height="8" rx="2" fill="#40c463" stroke="none" /><rect x="722" y="69" width="8" height="8" rx="2" fill="#216e39" stroke="none" /><rect x="722" y="80" width="8" height="8" rx="2" fill="#30a14e" stroke="none" /><rect x="722" y="91" width="8" height="8" rx="2" fill="#30a14e" stroke="none" /><rect x="722" y="102" width="8" height="8" rx="2" fill="#40c463" stroke="none" /><rect x="722" y="113" width="8" height="8" rx="2" fill="#40c463" stroke="none" /><rect x="722" y="124" width="8" height="8" rx="2" fill="#40c463" stroke="none" /><rect x="733" y="58" width="8" height="8" rx="2" fill="#40c463" stroke="none" /><rect x="733" y="69" width="8" height="8" rx="2" fill="#40c463" stroke="none" /><rect x="733" y="80" width="8" height="8" rx="2" fill="#30a14e" stroke="none" /><rect x="733" y="91" width="8" height="8" rx="2" fill="#40c463" stroke="none" /><rect x="733" y="102" width="8" height="8" rx="2" fill="#9be9a8" stroke="none" /><rect x="733" y="113" width="8" height="8" rx="2" fill="#9be9a8" stroke="none" /><rect x="733" y="124" width="8" height="8" rx="2" fill="#40c463" stroke="none" /><rect x="744" y="58" width="8" height="8" rx="2" fill="#9be9a8" stroke="none" /><rect x="744" y="69" width="8" height="8" rx="2" fill="#9be9a8" stroke="none" /><rect x="744" y="80" width="8" height="8" rx="2" fill="#9be9a8" stroke="none" /><rect x="744" y="91" width="8" height="8" rx="2" fill="#40c463" stroke="none" /><rect x="744" y="102" width="8" height="8" rx="2" fill="#9be9a8" stroke="none" /><rect x="744" y="113" width="8" height="8" rx="2" fill="#9be9a8" stroke="none" /><rect x="744" y="124" width="8" height="8" rx="2" fill="#9be9a8" stroke="none" /><rect x="755" y="58" width="8" height="8" rx="2" fill="#9be9a8" stroke="none" /><rect x="755" y="69" width="8" height="8" rx="2" fill="#9be9a8" stroke="none" /><rect x="755" y="80" width="8" height="8" rx="2" fill="#9be9a8" stroke="none" /><rect x="755" y="91" width="8" height="8" rx="2" fill="#9be9a8" stroke="none" /><rect x="755" y="102" width="8" height="8" rx="2" fill="#9be9a8" stroke="none" /><rect x="755" y="113" width="8" height="8" rx="2" fill="#216e39" stroke="none" /><rect x="755" y="124" width="8" height="8" rx="2" fill="#9be9a8" stroke="none" /><rect x="766" y="58" width="8" height="8" rx="2" fill="#40c463" stroke="none" /><rect x="766" y="69" width="8" height="8" rx="2" fill="#40c463" stroke="none" /><rect x="766" y="80" width="8" height="8" rx="2" fill="#9be9a8" stroke="none" /><rect x="766" y="91" width="8" height="8" rx="2" fill="#9be9a8" stroke="none" /><rect x="766" y="102" width="8" height="8" rx="2" fill="#9be9a8" stroke="none" /><rect x="766" y="113" width="8" height="8" rx="2" fill="#9be9a8" stroke="none" /><rect x="766" y="124" width="8" height="8" rx="2" fill="#9be9a8" stroke="none" /><rect x="777" y="58" width="8" height="8" rx="2" fill="#40c463" stroke="none" /><rect x="777" y="69" width="8" height="8" rx="2" fill="#40c463" stroke="none" /><rect x="777" y="80" width="8" height="8" rx="2" fill="#40c463" stroke="none" /><rect x="777" y="91" width="8" height="8" rx="2" fill="#9be9a8" stroke="none" /><rect x="777" y="102" width="8" height="8" rx="2" fill="#9be9a8" stroke="none" /><rect x="777" y="113" width="8" height="8" rx="2" fill="#40c463" stroke="none" /><rect x="777" y="124" width="8" height="8" rx="2" fill="#9be9a8" stroke="none" /><rect x="788" y="58" width="8" height="8" rx="2" fill="#9be9a8" stroke="none" /><rect x="788" y="69" width="8" height="8" rx="2" fill="#40c463" stroke="none" /><rect x="788" y="80" width="8" height="8" rx="2" fill="#40c463" stroke="none" /><rect x="788" y="91" width="8" height="8" rx="2" fill="#40c463" stroke="none" /><rect x="788" y="102" width="8" height="8" rx="2" fill="#40c463" stroke="none" /><rect x="788" y="113" width="8" height="8" rx="2" fill="#9be9a8" stroke="none" /><rect x="788" y="124" width="8" height="8" rx="2" fill="#40c463" stroke="none" /><rect x="799" y="58" width="8" height="8" rx="2" fill="#9be9a8" stroke="none" /><rect x="799" y="69" width="8" height="8" rx="2" fill="#9be9a8" stroke="none" /><rect x="799" y="80" width="8" height="8" rx="2" fill="#9be9a8" stroke="none" /><rect x="799" y="91" width="8" height="8" rx="2" fill="#9be9a8" stroke="none" /><rect x="799" y="102" width="8" height="8" rx="2" fill="#30a14e" stroke="none" /><rect x="799" y="113" width="8" height="8" rx="2" fill="#40c463" stroke="none" /><rect x="799" y="124" width="8" height="8" rx="2" fill="#9be9a8" stroke="none" /><rect x="810" y="58" width="8" height="8" rx="2" fill="#9be9a8" stroke="none" /><rect x="810" y="69" width="8" height="8" rx="2" fill="#40c463" stroke="none" /><rect x="810" y="80" width="8" height="8" rx="2" fill="#40c463" stroke="none" /><rect x="810" y="91" width="8" height="8" rx="2" fill="#40c463" stroke="none" /><rect x="810" y="102" width="8" height="8" rx="2" fill="#30a14e" stroke="none" /><rect x="810" y="113" width="8" height="8" rx="2" fill="#9be9a8" stroke="none" /><rect x="810" y="124" width="8" height="8" rx="2" fill="#30a14e" stroke="none" /><rect x="821" y="58" width="8" height="8" rx="2" fill="#9be9a8" stroke="none" /><rect x="821" y="69" width="8" height="8" rx="2" fill="#216e39" stroke="none" /><rect x="821" y="80" width="8" height="8" rx="2" fill="#30a14e" stroke="none" /><rect x="821" y="91" width="8" height="8" rx="2" fill="#216e39" stroke="none" /><rect x="821" y="102" width="8" height="8" rx="2" fill="#30a14e" stroke="none" /><rect x="821" y="113" width="8" height="8" rx="2" fill="#40c463" stroke="none" /><rect x="821" y="124" width="8" height="8" rx="2" fill="#9be9a8" stroke="none" /><rect x="832" y="58" width="8" height="8" rx="2" fill="#216e39" stroke="none" /><rect x="832" y="69" width="8" height="8" rx="2" fill="#30a14e" stroke="none" /><rect x="832" y="80" width="8" height="8" rx="2" fill="#40c463" stroke="none" /><rect x="832" y="91" width="8" height="8" rx="2" fill="#40c463" stroke="none" /><rect x="832" y="102" width="8" height="8" rx="2" fill="#40c463" stroke="none" /><rect x="832" y="113" width="8" height="8" rx="2" fill="#216e39" stroke="none" /><rect x="832" y="124" width="8" height="8" rx="2" fill="#9be9a8" stroke="none" /><rect x="843" y="58" width="8" height="8" rx="2" fill="#216e39" stroke="none" /><rect x="843" y="69" width="8" height="8" rx="2" fill="#30a14e" stroke="none" /><rect x="843" y="80" width="8" height="8" rx="2" fill="#40c463" stroke="none" /><rect x="843" y="91" width="8" height="8" rx="2" fill="#30a14e" stroke="none" /><rect x="843" y="102" width="8" height="8" rx="2" fill="#40c463" stroke="none" /><rect x="843" y="113" width="8" height="8" rx="2" fill="#40c463" stroke="none" /><rect x="843" y="124" width="8" height="8" rx="2" fill="#216e39" stroke="none" /><rect x="854" y="58" width="8" height="8" rx="2" fill="#9be9a8" stroke="none" /><rect x="854" y="69" width="8" height="8" rx="2" fill="#9be9a8" stroke="none" /><rect x="854" y="80" width="8" height="8" rx="2" fill="#9be9a8" stroke="none" /><rect x="854" y="91" width="8" height="8" rx="2" fill="#40c463" stroke="none" /><rect x="854" y="102" width="8" height="8" rx="2" fill="#40c463" stroke="none" /><rect x="854" y="113" width="8" height="8" rx="2" fill="#216e39" stroke="none" /><rect x="854" y="124" width="8" height="8" rx="2" fill="#40c463" stroke="none" /><rect x="865" y="58" width="8" height="8" rx="2" fill="#9be9a8" stroke="none" /><rect x="865" y="69" width="8" height="8" rx="2" fill="#9be9a8" stroke="none" /><rect x="865" y="80" width="8" height="8" rx="2" fill="#9be9a8" stroke="none" /><rect x="865" y="91" width="8" height="8" rx="2" fill="#30a14e" stroke="none" /><rect x="865" y="102" width="8" height="8" rx="2" fill="#40c463" stroke="none" /><rect x="865" y="113" width="8" height="8" rx="2" fill="#40c463" stroke="none" /><rect x="865" y="124" width="8" height="8" rx="2" fill="#40c463" stroke="none" /><rect x="876" y="58" width="8" height="8" rx="2" fill="#9be9a8" stroke="none" /><rect x="876" y="69" width="8" height="8" rx="2" fill="#9be9a8" stroke="none" /><rect x="876" y="80" width="8" height="8" rx="2" fill="#9be9a8" stroke="none" /><rect x="876" y="91" width="8" height="8" rx="2" fill="#40c463" stroke="none" /><rect x="876" y="102" width="8" height="8" rx="2" fill="#216e39" stroke="none" /><rect x="876" y="113" width="8" height="8" rx="2" fill="#40c463" stroke="none" /><rect x="876" y="124" width="8" height="8" rx="2" fill="#40c463" stroke="none" /><rect x="887" y="58" width="8" height="8" rx="2" fill="#9be9a8" stroke="none" /><rect x="887" y="69" width="8" height="8" rx="2" fill="#40c463" stroke="none" /><rect x="887" y="80" width="8" height="8" rx="2" fill="#30a14e" stroke="none" /><rect x="887" y="91" width="8" height="8" rx="2" fill="#30a14e" stroke="none" /><rect x="887" y="102" width="8" height="8" rx="2" fill="#216e39" stroke="none" /><rect x="887" y="113" width="8" height="8" rx="2" fill="#216e39" stroke="none" /><rect x="887" y="124" width="8" height="8" rx="2" fill="#216e39" stroke="none" /><rect x="898" y="58" width="8" height="8" rx="2" fill="#30a14e" stroke="none" /><rect x="898" y="69" width="8" height="8" rx="2" fill="#9be9a8" stroke="none" />
</svg>
