<svg xmlns="http://www.w3.org/2000/svg" width="1200" height="300" viewBox="0 0 1200 300" role="img" aria-labelledby="title desc">
  <title id="title">The lifcc coding-agent infrastructure loop</title>
  <desc id="desc">Eight open-source layers connect goals, extensions, trust, memory, orchestration, routing, governance, and session recovery.</desc>
  <defs>
    <linearGradient id="bg" x1="0" y1="0" x2="1" y2="1"><stop stop-color="#07131f"/><stop offset="1" stop-color="#090710"/></linearGradient>
    <pattern id="dots" width="24" height="24" patternUnits="userSpaceOnUse"><circle cx="1" cy="1" r="0.8" fill="#4b7b8d" opacity="0.28"/></pattern>
    <marker id="arrow" markerWidth="8" markerHeight="8" refX="7" refY="4" orient="auto"><path d="M0 0 8 4 0 8Z" fill="#00e7ff"/></marker>
    <filter id="glow" x="-100%" y="-100%" width="300%" height="300%"><feGaussianBlur stdDeviation="3" result="b"/><feMerge><feMergeNode in="b"/><feMergeNode in="SourceGraphic"/></feMerge></filter>
  </defs>
  <style>
    text { font-family: "SFMono-Regular", Consolas, "Liberation Mono", monospace; }
    .route { stroke-dasharray: 8 10; animation: route 5s linear infinite; }
    .hot { animation: hot 3s ease-in-out infinite; }
    .n2 { animation-delay: .35s; } .n3 { animation-delay: .7s; } .n4 { animation-delay: 1.05s; }
    .n5 { animation-delay: 1.4s; } .n6 { animation-delay: 1.75s; } .n7 { animation-delay: 2.1s; } .n8 { animation-delay: 2.45s; }
    @keyframes route { to { stroke-dashoffset: -72; } }
    @keyframes hot { 0%, 100% { opacity: .6; } 45%, 70% { opacity: 1; } }
    @media (prefers-reduced-motion: reduce) { * { animation: none !important; } }
  </style>
  <rect width="1200" height="300" rx="14" fill="url(#bg)"/>
  <rect x="1" y="1" width="1198" height="298" rx="13" fill="none" stroke="#224251"/>
  <rect x="1" y="1" width="1198" height="298" rx="13" fill="url(#dots)"/>
  <text x="34" y="37" fill="#00e7ff" font-size="12" letter-spacing="3">// THE_CLOSED_LOOP</text>
  <text x="240" y="37" fill="#6f8798" font-size="11" letter-spacing="1">INDEPENDENT SYSTEMS / SHARED CONTRACT / VERIFIED EXECUTION</text>
  <circle cx="1130" cy="32" r="4" fill="#ff3d9a" filter="url(#glow)"/>
  <text x="1142" y="36" fill="#93a8b5" font-size="9" letter-spacing="1">LIVE</text>

  <path d="M220 110H265M445 110H490M670 110H715M895 110H940M1120 110H1150V223H1120M940 223H895M715 223H670M490 223H130V146" fill="none" stroke="#00e7ff" stroke-width="1.4" opacity="0.62" marker-end="url(#arrow)" class="route"/>
  <path d="M130 146V174" stroke="#ff3d9a" stroke-width="1" opacity="0.45" stroke-dasharray="3 5"/>

  <g>
    <g class="hot"><rect x="40" y="74" width="180" height="72" rx="6" fill="#081a25" stroke="#197083"/><text x="56" y="95" fill="#00e7ff" font-size="9" letter-spacing="2">01 / DIRECT</text><text x="56" y="119" fill="#d8f8ff" font-size="14">goal contracts</text><text x="56" y="136" fill="#6f8798" font-size="9">awesome-goal-prompts</text></g>
    <g class="hot n2"><rect x="265" y="74" width="180" height="72" rx="6" fill="#081a25" stroke="#197083"/><text x="281" y="95" fill="#00e7ff" font-size="9" letter-spacing="2">02 / EXTEND</text><text x="281" y="119" fill="#d8f8ff" font-size="14">skills + runtime</text><text x="281" y="136" fill="#6f8798" font-size="9">registry / spellbook</text></g>
    <g class="hot n3"><rect x="490" y="74" width="180" height="72" rx="6" fill="#081a25" stroke="#197083"/><text x="506" y="95" fill="#00e7ff" font-size="9" letter-spacing="2">03 / TRUST</text><text x="506" y="119" fill="#d8f8ff" font-size="14">scan + guard</text><text x="506" y="136" fill="#6f8798" font-size="9">argus / vibeguard</text></g>
    <g class="hot n4"><rect x="715" y="74" width="180" height="72" rx="6" fill="#081a25" stroke="#197083"/><text x="731" y="95" fill="#00e7ff" font-size="9" letter-spacing="2">04 / REMEMBER</text><text x="731" y="119" fill="#d8f8ff" font-size="14">persistent context</text><text x="731" y="136" fill="#6f8798" font-size="9">remem</text></g>
    <g class="hot n5"><rect x="940" y="74" width="180" height="72" rx="6" fill="#160b16" stroke="#8d2d63"/><text x="956" y="95" fill="#ff3d9a" font-size="9" letter-spacing="1.5">05 / ORCHESTRATE</text><text x="956" y="119" fill="#ffe3f0" font-size="14">agent fleets</text><text x="956" y="136" fill="#8e7180" font-size="9">harness</text></g>
    <g class="hot n6"><rect x="940" y="187" width="180" height="72" rx="6" fill="#160b16" stroke="#8d2d63"/><text x="956" y="208" fill="#ff3d9a" font-size="9" letter-spacing="2">06 / ROUTE</text><text x="956" y="232" fill="#ffe3f0" font-size="14">model gateway</text><text x="956" y="249" fill="#8e7180" font-size="9">litellm-rs</text></g>
    <g class="hot n7"><rect x="715" y="187" width="180" height="72" rx="6" fill="#160b16" stroke="#8d2d63"/><text x="731" y="208" fill="#ff3d9a" font-size="9" letter-spacing="2">07 / GOVERN</text><text x="731" y="232" fill="#ffe3f0" font-size="14">spec-first rails</text><text x="731" y="249" fill="#8e7180" font-size="9">specrail</text></g>
    <g class="hot n8"><rect x="490" y="187" width="180" height="72" rx="6" fill="#160b16" stroke="#8d2d63"/><text x="506" y="208" fill="#ff3d9a" font-size="9" letter-spacing="2">08 / KEEP</text><text x="506" y="232" fill="#ffe3f0" font-size="14">recover sessions</text><text x="506" y="249" fill="#8e7180" font-size="9">keepline</text></g>
  </g>
  <text x="40" y="278" fill="#607989" font-size="9" letter-spacing="1.5">INPUT: INTENT</text>
  <text x="1030" y="278" fill="#607989" font-size="9" letter-spacing="1.5">OUTPUT: PROOF</text>
</svg>
